<?xml version="1.0" encoding="utf-8"?>
<!-- Generator: Adobe Illustrator 16.0.0, SVG Export Plug-In . SVG Version: 6.00 Build 0)  -->
<!DOCTYPE svg PUBLIC "-//W3C//DTD SVG 1.1//EN" "http://www.w3.org/Graphics/SVG/1.1/DTD/svg11.dtd">
<svg version="1.1" id="Warstwa_1" xmlns="http://www.w3.org/2000/svg" xmlns:xlink="http://www.w3.org/1999/xlink" x="0px" y="0px"
	 width="173.2px" height="200px" viewBox="0 0 173.2 200" enable-background="new 0 0 173.2 200" xml:space="preserve">
<g>
	<g>
		<defs>
			<path id="SVGID_1_" d="M11.483,183.768c0,1.73,25.24,3.134,56.376,3.134c31.136,0,56.376-1.403,56.376-3.134
				c0-1.731-25.24-3.138-56.376-3.138C36.724,180.63,11.483,182.036,11.483,183.768"/>
		</defs>
		<clipPath id="SVGID_2_">
			<use xlink:href="#SVGID_1_"  overflow="visible"/>
		</clipPath>
		
			<linearGradient id="SVGID_3_" gradientUnits="userSpaceOnUse" x1="-412.9277" y1="600.7031" x2="-412.1573" y2="600.7031" gradientTransform="matrix(-144.3876 -122.6233 -122.6233 144.3876 14120.4434 -137173.0625)">
			<stop  offset="0" style="stop-color:#BC8E2C"/>
			<stop  offset="0.2857" style="stop-color:#FAEA9D"/>
			<stop  offset="0.551" style="stop-color:#BD902B"/>
			<stop  offset="0.7959" style="stop-color:#F9E99C"/>
			<stop  offset="1" style="stop-color:#7E4007"/>
		</linearGradient>
		<polygon clip-path="url(#SVGID_2_)" fill="url(#SVGID_3_)" points="76.99,242.535 8.389,184.274 58.73,124.998 127.332,183.257 		
			"/>
	</g>
	<g>
		<defs>
			<path id="SVGID_4_" d="M73.365,118.546c-3.945-0.829-6.276-5.717-5.42-11.101c1.665-9.841,8.257-19.038,18.442-24.036
				c0.624-0.306,1.258-0.554,1.89-0.82c0.396,5.472-0.042,11.286-1.446,17.173c-1.093,4.582-2.698,8.852-4.684,12.743h-0.004
				c-0.032,0.074-0.073,0.136-0.107,0.209c-0.259,0.504-0.519,1.01-0.791,1.499c-1.673,2.725-4.173,4.452-6.727,4.454
				C74.135,118.668,73.749,118.626,73.365,118.546 M24.007,89.275c0.083-0.499,0.168-1,0.263-1.503
				c0.158-0.84,0.32-1.684,0.519-2.528c0.037-0.168,0.077-0.331,0.114-0.497C30.508,61.658,48.8,46.26,65.861,50.328
				c8.045,1.917,14.383,7.823,18.267,15.955c-0.778,0.339-1.553,0.694-2.323,1.072c-13.792,6.766-23.379,18.449-27.431,31.45
				c-0.434,1.234-0.797,2.511-1.076,3.836c-0.054,0.261-0.08,0.518-0.128,0.775c-0.011,0.051-0.026,0.1-0.035,0.151l0.006,0.021
				c-2.457,13.797,4.861,26.786,16.701,29.274c10.945,2.303,21.964-5.174,26.181-17.073c1.575-3.621,2.948-7.421,4.036-11.406
				c2.285-8.344,3.209-16.639,2.937-24.504c10.943,0.439,21.002,6.22,25.865,16.126c5.122,10.444,3.096,22.65-4.138,31.749
				l0.011,0.012c-4.149,4.777-8.924,9.491-14.288,13.953c-12.409,10.319-25.576,17.419-37.057,20.689
				c-6.866,1.714-13.103,0.965-17.508-2.704c-2.164-1.802-3.681-4.192-4.645-6.968c-0.339-1.468-0.8-2.93-1.403-4.374
				c-2.782-6.66-7.868-11.573-13.784-14.124c-9.952-5.612-15.036-22.633-12.47-42.114l0.024,0.009
				C23.708,91.187,23.853,90.232,24.007,89.275 M11.27,71.854C9.277,76.84,7.618,82.229,6.392,87.92
				c-6.171,28.653,0.709,54.861,15.432,61.646l-0.009,0.012c6.24,2.634,11.401,7.544,14.601,13.59l0.012-0.007
				c5.736,11.263,15.622,19.244,27.646,20.771c7.176,0.909,14.186-0.617,20.456-3.994c7.762-3.554,15.677-7.923,23.495-13.113
				c12.735-8.454,23.604-17.983,32.054-27.62l-0.039-0.057c12.866-14.455,16.819-34.789,8.356-52.041
				c-8.759-17.851-28.266-27.207-48.291-25.062c-4.729-15.601-14.936-27.493-28.939-31.322c-3.14-0.859-6.321-1.272-9.503-1.272
				C41.267,29.45,20.843,46.425,11.27,71.854"/>
		</defs>
		<clipPath id="SVGID_5_">
			<use xlink:href="#SVGID_4_"  overflow="visible"/>
		</clipPath>
		
			<linearGradient id="SVGID_6_" gradientUnits="userSpaceOnUse" x1="-412.9282" y1="600.7744" x2="-412.1576" y2="600.7744" gradientTransform="matrix(-144.3876 -122.6233 -122.6233 144.3876 14171.4434 -137233.1562)">
			<stop  offset="0" style="stop-color:#BC8E2C"/>
			<stop  offset="0.2857" style="stop-color:#FAEA9D"/>
			<stop  offset="0.551" style="stop-color:#BD902B"/>
			<stop  offset="0.7959" style="stop-color:#F9E99C"/>
			<stop  offset="1" style="stop-color:#7E4007"/>
		</linearGradient>
		<polygon clip-path="url(#SVGID_5_)" fill="url(#SVGID_6_)" points="91.223,262.126 -76.449,119.729 65.855,-47.834 
			233.528,94.563 		"/>
	</g>
	<g>
		<defs>
			<rect id="SVGID_7_" x="-315.522" y="-237.5" width="770.246" height="770.245"/>
		</defs>
		<clipPath id="SVGID_8_">
			<use xlink:href="#SVGID_7_"  overflow="visible"/>
		</clipPath>
		<g opacity="0.6" clip-path="url(#SVGID_8_)">
			<g>
				<defs>
					<rect id="SVGID_9_" x="75.41" y="66.287" width="12.866" height="21.792"/>
				</defs>
				<clipPath id="SVGID_10_">
					<use xlink:href="#SVGID_9_"  overflow="visible"/>
				</clipPath>
				<g clip-path="url(#SVGID_10_)">
					<defs>
						<path id="SVGID_11_" d="M86.388,83.409c0.625-0.307,1.257-0.577,1.888-0.843c-0.437-5.957-1.867-11.502-4.147-16.28
							c-0.779,0.339-1.554,0.691-2.324,1.069c-2.25,1.105-4.375,2.352-6.395,3.704c0.261,0.534,0.514,1.078,0.753,1.639
							c1.97,4.645,2.981,9.89,3.083,15.381C81.377,86.287,83.755,84.701,86.388,83.409"/>
					</defs>
					<clipPath id="SVGID_12_">
						<use xlink:href="#SVGID_11_"  overflow="visible"/>
					</clipPath>
					
						<linearGradient id="SVGID_13_" gradientUnits="userSpaceOnUse" x1="-414.8193" y1="598.1133" x2="-414.049" y2="598.1133" gradientTransform="matrix(21.5805 -8.5561 -8.5561 -21.5805 14149.25 9436.373)">
						<stop  offset="0" style="stop-color:#FFFFFF"/>
						<stop  offset="1" style="stop-color:#000000"/>
					</linearGradient>
					<polygon clip-path="url(#SVGID_12_)" fill="url(#SVGID_13_)" points="67.943,69.247 86.529,61.878 95.743,85.118 
						77.157,92.487 					"/>
				</g>
			</g>
		</g>
		<path clip-path="url(#SVGID_8_)" fill="#479B01" d="M102.125,50.784c3.027-7.151,5.354-13.045,1.247-27.885
			c4.641,7.079,5.6,15.045,5.572,20.584c1.432-3.424,2.374-8.136,1.734-14.473c-1.726-17.031-9.384-25.105-9.384-25.105
			s-9.484,11.603-8.535,23.127C93.672,38.12,97.288,45.893,102.125,50.784"/>
		<path clip-path="url(#SVGID_8_)" fill="#479B01" d="M120.41,43.188c-1.923,3.209-6.043,3.924-7.786,2.599
			c-1.739-1.324-2.396-4.571-0.22-7.857c1.459-2.206,4.421-2.827,6.632-1.374C121.248,38.009,121.768,40.92,120.41,43.188"/>
		<path clip-path="url(#SVGID_8_)" fill="#479B01" d="M137.39,40.158c-10.929,0.9-17.534,4.691-21.417,8.286
			c4.08-1.621,12.571-3.782,25.929-1.51c-11.826-0.256-25.324,4.416-30.923,8.674c7.363,5.332,18.34,8.34,33.135,6.841
			c14.855-1.504,27.363-16.276,27.363-16.276S159.423,38.345,137.39,40.158"/>
		<g opacity="0.6" clip-path="url(#SVGID_8_)">
			<g>
				<defs>
					<rect id="SVGID_14_" x="100.468" y="23.725" width="5.104" height="27.051"/>
				</defs>
				<clipPath id="SVGID_15_">
					<use xlink:href="#SVGID_14_"  overflow="visible"/>
				</clipPath>
				<g clip-path="url(#SVGID_15_)">
					<defs>
						<polyline id="SVGID_16_" points="103.9,23.746 103.89,23.725 103.891,23.733 103.9,23.746 						"/>
					</defs>
					<clipPath id="SVGID_17_">
						<use xlink:href="#SVGID_16_"  overflow="visible"/>
					</clipPath>
					
						<linearGradient id="SVGID_18_" gradientUnits="userSpaceOnUse" x1="-415.4795" y1="601.3945" x2="-414.4795" y2="601.3945" gradientTransform="matrix(-0.7632 -32.3582 -32.3582 0.7632 19247.6777 -13845.4775)">
						<stop  offset="0" style="stop-color:#FFFFFF"/>
						<stop  offset="1" style="stop-color:#000000"/>
					</linearGradient>
					<rect x="103.89" y="23.724" clip-path="url(#SVGID_17_)" fill="url(#SVGID_18_)" width="0.01" height="0.021"/>
				</g>
				<g clip-path="url(#SVGID_15_)">
					<defs>
						<path id="SVGID_19_" d="M103.997,25.314c0.21,4.2,0.38,15.823-3.528,23.617c0.534,0.659,1.091,1.267,1.659,1.845
							C104.983,44.032,107.202,38.387,103.997,25.314"/>
					</defs>
					<clipPath id="SVGID_20_">
						<use xlink:href="#SVGID_19_"  overflow="visible"/>
					</clipPath>
					
						<linearGradient id="SVGID_21_" gradientUnits="userSpaceOnUse" x1="-415.2378" y1="601.3545" x2="-414.4673" y2="601.3545" gradientTransform="matrix(-0.7632 -32.3582 -32.3582 0.7632 19245.9902 -13845.4307)">
						<stop  offset="0" style="stop-color:#FFFFFF"/>
						<stop  offset="1" style="stop-color:#000000"/>
					</linearGradient>
					<polygon clip-path="url(#SVGID_20_)" fill="url(#SVGID_21_)" points="100.471,50.936 99.868,25.327 107.198,25.155 
						107.801,50.763 					"/>
				</g>
			</g>
		</g>
		<g opacity="0.6" clip-path="url(#SVGID_8_)">
			<g>
				<defs>
					<rect id="SVGID_22_" x="110.979" y="46.982" width="27.743" height="11.062"/>
				</defs>
				<clipPath id="SVGID_23_">
					<use xlink:href="#SVGID_22_"  overflow="visible"/>
				</clipPath>
				<g clip-path="url(#SVGID_23_)">
					<defs>
						<path id="SVGID_24_" d="M110.979,55.607c1.218,0.882,2.536,1.693,3.951,2.437c4.314-3.094,15.172-10.279,23.792-11.062
							C127.744,47.507,116.083,51.726,110.979,55.607"/>
					</defs>
					<clipPath id="SVGID_25_">
						<use xlink:href="#SVGID_24_"  overflow="visible"/>
					</clipPath>
					
						<linearGradient id="SVGID_26_" gradientUnits="userSpaceOnUse" x1="-413.7388" y1="598.3926" x2="-412.9683" y2="598.3926" gradientTransform="matrix(36.0171 0 0 -36.0171 15012.6328 21604.8984)">
						<stop  offset="0" style="stop-color:#FFFFFF"/>
						<stop  offset="1" style="stop-color:#000000"/>
					</linearGradient>
					<rect x="110.979" y="46.982" clip-path="url(#SVGID_25_)" fill="url(#SVGID_26_)" width="27.743" height="11.062"/>
				</g>
			</g>
		</g>
	</g>
</g>
</svg>
